# AST/ASF file generated using VICON BodyLanguage
# -----------------------------------------------
:version 1.10
:name VICON
:units
  mass 1.0
  length 0.45
  angle deg
:documentation
   .ast/.asf automatically generated from VICON data using
   VICON BodyBuilder and BodyLanguage model FoxedUp or BRILLIANT.MOD
:root
   order TX TY TZ RX RY RZ
   axis XYZ
   position 0 0 0  
   orientation 0 0 0 
:bonedata
  begin
     id 1 
     name lhipjoint
     direction 0.560651 -0.75055 0.34978 
     length 2.44936 
     axis 0 0 0  XYZ
  end
  begin
     id 2 
     name lfemur
     direction 0.34202 -0.939693 0  
     length 7.42139  
     axis 0 0 20  XYZ
    dof rx ry rz
    limits (-160.0 20.0)
           (-70.0 70.0)
           (-60.0 70.0)
  end
  begin
     id 3 
     name ltibia
     direction 0.34202 -0.939693 0   
     length 7.75674   
     axis 0 0 20   XYZ
    dof rx
    limits (-10.0 170.0)
  end
  begin
     id 4 
     name lfoot
     direction 0.0925879 -0.254383 0.962661   
     length 2.38688   
     axis -90 7.62852e-016 20   XYZ
    dof rx rz
    limits (-45.0 90.0)
           (-70.0 20.0)
  end
  begin
     id 5 
     name ltoes
     direction 1.53567e-011 -4.21973e-011 1   
     length 1.19228   
     axis -90 7.62852e-016 20   XYZ
    dof rx
    limits (-90.0 20.0)
  end
  begin
     id 6 
     name rhipjoint
     direction -0.540087 -0.762838 0.355506   
     length 2.4099  
     axis 0 0 0  XYZ 
  end
  begin
     id 7 
     name rfemur
     direction -0.34202 -0.939693 0   
     length 7.70794   
     axis 0 0 -20   XYZ
    dof rx ry rz
    limits (-160.0 20.0)
           (-70.0 70.0)
           (-70.0 60.0)
  end
  begin
     id 8 
     name rtibia
     direction -0.34202 -0.939693 0   
     length 7.66106   
     axis 0 0 -20   XYZ
    dof rx
    limits (-10.0 170.0)
 end
 begin
     id 9 
     name rfoot
     direction -0.0830975 -0.228308 0.970036   
     length 2.4989  
     axis -90 -7.62852e-016 -20   XYZ
    dof rx rz
    limits (-45.0 90.0)
           (-20.0 70.0)
  end
  begin
     id 10 
     name rtoes
     direction -1.53517e-011 -4.21842e-011 1   
     length 1.2498   
     axis -90 -7.62852e-016 -20   XYZ
    dof rx
    limits (-90.0 20.0)
  end
  begin
     id 11 
     name lowerback
     direction 0.0266356 0.99402 -0.105896   
     length 2.1545   
     axis 0 0 0   XYZ
    dof rx ry rz
    limits (-20.0 45.0)
           (-30.0 30.0)
           (-30.0 30.0)
  end
  begin
     id 12 
     name upperback
     direction 0.0130547 0.999192 0.0380027   
     length 2.1434   
     axis 0 0 0   XYZ
    dof rx ry rz
    limits (-20.0 45.0)
           (-30.0 30.0)
           (-30.0 30.0)
  end
  begin
     id 13 
     name thorax
     direction 0.000590299 0.996288 0.0860764   
     length 2.19049   
     axis 0 0 0   XYZ
    dof rx ry rz
    limits (-20.0 45.0)
           (-30.0 30.0)
           (-30.0 30.0)
  end
  begin
     id 14 
     name lowerneck
     direction -0.0432125 0.978219 0.203028   
     length 1.62441   
     axis 0 0 0   XYZ
    dof rx ry rz
    limits (-20.0 45.0)
           (-30.0 30.0)
           (-30.0 30.0)
  end
  begin
     id 15 
     name upperneck
     direction -0.0192309 0.991699 -0.127138   
     length 1.66666   
     axis 0 0 0   XYZ
    dof rx ry rz
    limits (-20.0 45.0)
           (-30.0 30.0)
           (-30.0 30.0)
  end
  begin
     id 16
     name head
     direction -0.00434499 0.997882 -0.0649107  
     length 1.67142  
     axis 0 0 0   XYZ
    dof rx ry rz
    limits (-20.0 45.0)
           (-30.0 30.0)
           (-30.0 30.0)
  end
  begin
     id 17 
     name lclavicle
     direction 0.970351 0.240904 -0.0196058  
     length 4.04862  
     axis 0 0 0   XYZ
    dof ry rz
    limits (-20.0 10.0)
           (0.0 20.0)
  end
  begin
     id 18 
     name lhumerus
     direction 1 -4.4896e-011 -1.40911e-018   
     length 5.58345   
     axis 180 -30 -90   XYZ
    dof rx ry rz
    limits (-60.0 90.0)
           (-90.0 90.0)
           (-90.0 90.0)
  end
  begin
     id 19
     name lradius
     direction 1 -4.48968e-011 5.88912e-028   
     length 3.71087   
     axis 180 -30 -90   XYZ
    dof rx
    limits (-10.0 170.0)
  end
  begin
     id 20
     name lwrist
     direction 1 -4.48955e-011 -8.83775e-028   
     length 1.85544   
     axis 5.52448e-016 90 90   XYZ
    dof ry
    limits (-180.0 0.0)
 end
  begin
     id 21 
     name lhand
     direction 1 -4.49035e-011 -1.76755e-027   
     length 0.562322   
     axis 1.12785e-015 90 90   XYZ
    dof rx rz
    limits (-90.0 90.0)
           (-45.0 45.0)
  end
  begin
     id 22 
     name lfingers
     direction 1 -4.48824e-011 -3.5351e-027   
     length 0.453359   
     axis 2.2557e-015 90 90   XYZ
    dof rx
    limits (0.0 90.0)
  end
  begin
     id 23
     name lthumb
     direction 0.707107 -6.34888e-011 0.707107   
     length 0.650935   
     axis -90 45 2.85299e-015   XYZ
    dof rx rz
    limits (-45.0 45.0)
           (-45.0 45.0)
  end
  begin
     id 24 
     name rclavicle
     direction -0.96165 0.268562 -0.0557131   
     length 4.05446  
     axis 0 0 0   XYZ 
    dof ry rz
    limits (-10.0 20.0)
           (-20.0 0.0)
  end
  begin
     id 25 
     name rhumerus
     direction -1 -4.48957e-011 -3.36329e-027  
     length 5.20357   
     axis 180 30 90   XYZ
    dof rx ry rz
    limits (-90.0 60.0)
           (-90.0 90.0)
           (-90.0 90.0)
  end
  begin
     id 26 
     name rradius
     direction -1 -4.48974e-011 4.51441e-027   
     length 3.64937   
     axis 180 30 90   XYZ
    dof rx
    limits (-10.0 170.0)
  end
  begin
     id 27 
     name rwrist
     direction -1 -4.4896e-011 -8.83775e-028   
     length 1.82468   
     axis 5.52448e-016 -90 -90   XYZ
    dof ry
    limits (-180.0 0.0)
  end
  begin
     id 28
     name rhand
     direction -1 -4.48996e-011 -1.76755e-027   
     length 0.617996   
     axis 1.12785e-015 -90 -90   XYZ
    dof rx rz
    limits (-90.0 90.0)
           (-45.0 45.0)
  end
  begin
     id 29
     name rfingers
     direction -1 -4.48957e-011 -3.5351e-027   
     length 0.498244   
     axis 2.2557e-015 -90 -90   XYZ
    dof rx
    limits (0.0 90.0)
  end
  begin
     id 30
     name rthumb
     direction -0.707107 -6.34931e-011 0.707107   
     length 0.715382   
     axis -90 -45 -2.85299e-015   XYZ
    dof rx rz
    limits (-45.0 45.0)
           (-45.0 45.0)
  end
:hierarchy
  begin
    root lhipjoint rhipjoint lowerback
    lhipjoint lfemur
    lfemur ltibia
    ltibia lfoot
    lfoot ltoes
    rhipjoint rfemur
    rfemur rtibia
    rtibia rfoot
    rfoot rtoes
    lowerback upperback
    upperback thorax
    thorax lowerneck lclavicle rclavicle
    lowerneck upperneck
    upperneck head
    lclavicle lhumerus
    lhumerus lradius
    lradius lwrist
    lwrist lhand lthumb
    lhand lfingers
    rclavicle rhumerus
    rhumerus rradius
    rradius rwrist
    rwrist rhand rthumb
    rhand rfingers
  end

#!OML:ASF H:\ManfredETheater\Project 1\Capture day 2\Session 1\Male1.ASF
:FULLY-SPECIFIED
:DEGREES
33
root 6.96879 17.4526 -32.0799 15.2504 2.51944 4.29521
lowerback 12.2001 -2.77754 -0.611758
upperback -3.71195 -3.53293 2.89967
thorax -10.6621 -1.53302 4.23547
lowerneck -27.7628 0.773398 -1.56681
upperneck 13.7311 2.6317 -4.81818
head 8.84068 0.568001 -1.02988
rclavicle 2.5842e-015 1.59028e-015
rhumerus -78.4091 5.89945 -77.2435
rradius 74.5874
rwrist -3.08281
rhand -35.1202 8.57006
rfingers 7.12502
rthumb -8.26082 -21.2484
lclavicle 2.5842e-015 1.59028e-015
lhumerus -33.4384 -23.0611 96.5763
lradius 135.16
lwrist 17.729
lhand -22.1816 -13.2886
lfingers 7.12502
lthumb 4.23346 16.6491
rfemur -65.1874 -4.00311 14.4138
rtibia 63.0502
rfoot -7.86586 -0.826297
rtoes -18.1817
lfemur 19.3247 -3.25385 -24.5545
ltibia 10.3608
lfoot 34.6688 -7.25669
ltoes -4.05382
34
root 6.95585 17.52 -31.5062 15.2414 2.19347 4.51104
lowerback 11.9718 -2.78844 -0.681718
upperback -3.68372 -3.57432 2.7717
thorax -10.496 -1.55868 4.12585
lowerneck -27.9491 0.870049 -1.42322
upperneck 13.9192 2.73167 -4.85258
head 8.94055 0.6112 -1.05062
rclavicle 4.75095e-014 -2.62396e-014
rhumerus -77.8779 5.49758 -76.7435
rradius 73.8529
rwrist -2.82366
rhand -35.1282 8.26028
rfingers 7.12502
rthumb -8.26845 -21.5579
lclavicle 4.75095e-014 -2.62396e-014
lhumerus -34.0995 -23.7237 96.6716
lradius 135.049
lwrist 17.0277
lhand -22.592 -13.2479
lfingers 7.12502
lthumb 3.83715 16.6973
rfemur -64.5809 -4.03173 14.5138
rtibia 59.3161
rfoot -7.16132 -1.13566
rtoes -19.3804
lfemur 19.9483 -3.22782 -24.9342
ltibia 11.2535
lfoot 34.8972 -7.02117
ltoes -4.02177
35
root 6.94397 17.5753 -30.9393 15.1457 1.9298 4.91195
lowerback 11.9106 -2.8081 -0.915119
upperback -3.62065 -3.65607 2.60463
thorax -10.3799 -1.59301 4.08405
lowerneck -28.1137 0.952561 -1.32174
upperneck 14.0031 2.82711 -4.91357
head 9.00087 0.649577 -1.07406
rclavicle -1.21259e-014 -1.27222e-014
rhumerus -77.1847 5.04697 -76.2712
rradius 73.1128
rwrist -2.79172
rhand -36.1087 8.41532
rfingers 7.12502
rthumb -9.21471 -21.3633
lclavicle -1.21259e-014 -1.27222e-014
lhumerus -34.7808 -24.0513 96.8009
lradius 134.606
lwrist 16.8348
lhand -22.4792 -13.0141
lfingers 7.12502
lthumb 3.94606 16.9291
rfemur -63.8533 -4.2777 14.5383
rtibia 55.9752
rfoot -6.57613 -1.78895
rtoes -20.5567
lfemur 19.9904 -3.34922 -25.497
ltibia 13.4011
lfoot 34.0104 -5.06877
ltoes -4.37781
36
root 6.93034 17.613 -30.3781 14.9772 1.71549 5.46057
lowerback 11.9083 -2.80976 -1.29729
upperback -3.51042 -3.74141 2.3899
thorax -10.2397 -1.62245 4.0767
lowerneck -28.2495 0.992604 -1.23145
upperneck 14.0259 2.86941 -4.9964
head 9.03451 0.661816 -1.11124
rclavicle -1.45113e-014 2.70347e-014
rhumerus -76.3499 4.48146 -75.8393
rradius 72.3681
rwrist -2.99646
rhand -36.3268 7.98614
rfingers 7.12502
rthumb -9.42515 -21.7831
lclavicle -1.45113e-014 2.70347e-014
lhumerus -35.4975 -24.2334 97.041
lradius 133.868
lwrist 17.3348
lhand -22.3578 -12.7825
lfingers 7.12502
lthumb 4.06331 17.1585
rfemur -63.0338 -4.66092 14.5319
rtibia 53.1036
rfoot -6.15539 -2.61746
rtoes -21.544
lfemur 19.6009 -3.43451 -26.161
ltibia 16.3213
lfoot 33.2092 -4.09418
ltoes -2.74636
37
root 6.91783 17.6398 -29.8203 14.7039 1.55193 6.07102
lowerback 12.0293 -2.77386 -1.70298
upperback -3.36139 -3.78261 2.14626
thorax -10.1329 -1.62972 4.04965
lowerneck -28.4015 0.985607 -1.2399
upperneck 14.0304 2.87535 -5.03166
head 9.06131 0.657284 -1.1217
rclavicle 3.47873e-014 -2.38542e-015
rhumerus -75.4345 3.78069 -75.3919
rradius 71.6462
rwrist -3.32728
rhand -35.6218 7.7889
rfingers 7.12502
rthumb -8.74481 -22.0099
lclavicle 3.47873e-014 -2.38542e-015
lhumerus -36.2413 -24.237 97.4393
lradius 132.776
lwrist 18.0772
lhand -21.8587 -12.4587
lfingers 7.12502
lthumb 4.54525 17.4725
rfemur -62.1138 -5.15165 14.5288
rtibia 50.7832
rfoot -5.75067 -3.47773
rtoes -22.0139
lfemur 18.9103 -3.52796 -26.8669
ltibia 19.7315
lfoot 32.286 -4.61181
ltoes -1.16209
38
root 6.90821 17.6548 -29.2671 14.329 1.50043 6.66739
lowerback 12.3045 -2.74885 -2.04957
upperback -3.21412 -3.82664 1.94592
thorax -10.1195 -1.63756 4.04819
lowerneck -28.3896 0.93788 -1.30012
upperneck 13.921 2.85745 -5.17382
head 9.02357 0.631134 -1.16423
rclavicle -1.90833e-014 -1.90833e-014
rhumerus -74.4564 3.13643 -74.9521
rradius 70.9263
rwrist -3.69038
rhand -35.6002 7.63025
rfingers 7.12502
rthumb -8.72398 -22.1695
lclavicle -1.90833e-014 -1.90833e-014
lhumerus -37.0612 -24.0591 98.0194
lradius 131.462
lwrist 18.8265
lhand -21.4906 -11.7716
lfingers 7.12502
lthumb 4.90061 18.1518
rfemur -61.0961 -5.77698 14.614
rtibia 49.0474
rfoot -5.12311 -4.42862
rtoes -22.1059
lfemur 18.0521 -3.62734 -27.4738
ltibia 23.5238
lfoot 31.0416 -5.97412
ltoes 0.0602282
39
root 6.89926 17.6577 -28.7145 13.8914 1.47862 7.21872
lowerback 12.6109 -2.69486 -2.37163
upperback -3.03884 -3.82628 1.78021
thorax -10.096 -1.62511 4.06241
lowerneck -28.3215 0.850833 -1.54095
upperneck 13.774 2.82181 -5.17503
head 8.95785 0.605414 -1.13107
rclavicle 1.09332e-014 -1.51076e-014
rhumerus -73.3525 2.51108 -74.521
rradius 70.126
rwrist -4.01406
rhand -35.7212 7.27847
rfingers 7.12502
rthumb -8.84073 -22.5163
lclavicle 1.09332e-014 -1.51076e-014
lhumerus -37.8681 -23.6822 98.6726
lradius 129.918
lwrist 19.5328
lhand -20.8067 -10.7288
lfingers 7.12502
lthumb 5.56101 19.1782
rfemur -60.0246 -6.42131 14.7617
rtibia 47.8824
rfoot -4.47217 -5.38084
rtoes -22.1314
lfemur 17.0138 -3.8532 -28.0586
ltibia 27.5605
lfoot 29.9103 -7.47498
ltoes 1.60028
40
root 6.88905 17.6476 -28.1634 13.409 1.46202 7.56041
lowerback 12.9384 -2.60285 -2.52446
upperback -2.87219 -3.74346 1.66842
thorax -10.1079 -1.58043 4.0248
lowerneck -28.1076 0.732675 -1.7302
upperneck 13.6118 2.73734 -5.27034
head 8.86573 0.551604 -1.14589
rclavicle 4.31363e-014 1.03368e-014
rhumerus -72.2509 1.84927 -74.103
rradius 69.3481
rwrist -4.05985
rhand -35.7108 7.10705
rfingers 7.12502
rthumb -8.83073 -22.6882
lclavicle 4.31363e-014 1.03368e-014
lhumerus -38.7646 -23.2446 99.3925
lradius 128.155
lwrist 20.2114
lhand -20.5875 -10.1518
lfingers 7.12502
lthumb 5.77263 19.7496
rfemur -58.8983 -7.00427 15.124
rtibia 47.2431
rfoot -3.92622 -6.08421
rtoes -22.5132
lfemur 15.827 -3.9892 -28.3734
ltibia 31.7504
lfoot 28.6286 -8.83881
ltoes 2.0415
41
root 6.87668 17.6233 -27.6123 12.9249 1.43722 7.74192
lowerback 13.3198 -2.49329 -2.60405
upperback -2.74468 -3.62031 1.62747
thorax -10.1978 -1.51542 4.0192
lowerneck -27.8586 0.6266 -1.90525
upperneck 13.4805 2.66368 -5.36937
head 8.77961 0.503257 -1.1623
rclavicle 2.50469e-014 1.74931e-014
rhumerus -71.1444 1.27483 -73.7355
rradius 68.5871
rwrist -3.95641
rhand -35.67 6.83845
rfingers 7.12502
rthumb -8.79136 -22.9584
lclavicle 2.50469e-014 1.74931e-014
lhumerus -39.7034 -22.641 100.131
lradius 126.188
lwrist 20.6945
lhand -20.7354 -10.2167
lfingers 7.12502
lthumb 5.62978 19.6885
rfemur -57.7241 -7.56056 15.6744
rtibia 47.0522
rfoot -3.56678 -6.24716
rtoes -23.2065
lfemur 14.4419 -3.94425 -28.4241
ltibia 36.0491
lfoot 27.5456 -9.73668
ltoes 2.61142
42
root 6.86274 17.5828 -27.0612 12.4161 1.40678 7.59792
lowerback 13.6605 -2.36363 -2.4138
upperback -2.5645 -3.41328 1.67362
thorax -10.2218 -1.42641 3.9317
lowerneck -27.8265 0.527306 -2.04547
upperneck 13.4946 2.60816 -5.49485
head 8.78026 0.454642 -1.1921
rclavicle -8.74653e-015 -7.95139e-015
rhumerus -69.8709 0.656602 -73.3792
rradius 67.7877
rwrist -3.5506
rhand -35.5064 6.39414
rfingers 7.12502
rthumb -8.6335 -23.4093
lclavicle -8.74653e-015 -7.95139e-015
lhumerus -40.481 -21.9578 100.767
lradius 124.051
lwrist 20.8348
lhand -20.9271 -10.022
lfingers 7.12502
lthumb 5.44472 19.8881
rfemur -56.444 -7.98516 16.505
rtibia 47.1723
rfoot -3.19098 -6.04905
rtoes -23.88
lfemur 13.0234 -3.74468 -28.0463
ltibia 40.3721
lfoot 26.2908 -10.0757
ltoes 4.14123
43
root 6.8446 17.5288 -26.5099 11.9075 1.33245 7.10471
lowerback 13.9984 -2.21651 -2.00986
upperback -2.40659 -3.13177 1.84094
thorax -10.2777 -1.30916 3.83805
lowerneck -27.7114 0.434411 -2.16943
upperneck 13.4946 2.54888 -5.61209
head 8.76269 0.408008 -1.22169
rclavicle 5.56597e-015 -1.27222e-014
rhumerus -68.5539 0.163486 -73.1178
rradius 66.9819
rwrist -3.28892
rhand -35.2992 6.2311
rfingers 7.12502
rthumb -8.43349 -23.5805
lclavicle 5.56597e-015 -1.27222e-014
lhumerus -41.2551 -21.1467 101.349
lradius 121.801
lwrist 20.6199
lhand -21.351 -9.74613
lfingers 7.12502
lthumb 5.03543 20.174
rfemur -55.0355 -8.14511 17.5882
rtibia 47.5002
rfoot -2.78713 -5.54605
rtoes -24.3819
lfemur 11.4999 -3.30126 -27.1566
ltibia 44.6919
lfoot 24.5769 -10.167
ltoes 4.41295
44
root 6.82273 17.4709 -25.9552 11.4207 1.20112 6.39917
lowerback 14.3144 -2.06706 -1.47839
upperback -2.25345 -2.81568 2.06524
thorax -10.3295 -1.18119 3.72306
lowerneck -27.6789 0.388584 -2.22986
upperneck 13.5501 2.53603 -5.72815
head 8.77911 0.383775 -1.25461
rclavicle -1.66979e-014 1.59028e-014
rhumerus -67.168 -0.224172 -72.9763
rradius 66.1663
rwrist -3.15335
rhand -35.1067 6.0772
rfingers 7.12502
rthumb -8.24778 -23.7418
lclavicle -1.66979e-014 1.59028e-014
lhumerus -41.9794 -20.2207 101.803
lradius 119.398
lwrist 20.074
lhand -21.7408 -9.5904
lfingers 7.12502
lthumb 4.65905 20.3384
rfemur -53.5021 -8.15692 18.8238
rtibia 47.9936
rfoot -2.28393 -4.6684
rtoes -25.1149
lfemur 9.57183 -2.62999 -25.9668
ltibia 48.9592
lfoot 23.0031 -10.2369
ltoes 4.17514
45
root 6.7972 17.398 -25.4 10.9476 1.0504 5.45055
lowerback 14.614 -1.90888 -0.789545
upperback -2.11135 -2.44863 2.36162
thorax -10.3878 -1.03557 3.58291
lowerneck -27.621 0.32443 -2.28606
upperneck 13.5958 2.48592 -5.80003
head 8.78615 0.348295 -1.27829
rclavicle -3.1408e-014 -1.59028e-015
rhumerus -65.7104 -0.514627 -72.9578
rradius 65.3051
rwrist -3.31075
rhand -34.8646 5.75096
rfingers 7.12502
rthumb -8.0141 -24.0771
lclavicle -3.1408e-014 -1.59028e-015
lhumerus -42.6401 -19.2481 102.141
lradius 116.922
lwrist 19.5018
lhand -22.0031 -9.05567
lfingers 7.12502
lthumb 4.40577 20.8785
rfemur -51.952 -8.08997 20.3173
rtibia 48.768
rfoot -2.07949 -3.09879
rtoes -17.0248
lfemur 7.71542 -1.85231 -24.4224
ltibia 53.1774
lfoot 21.0038 -10.1805
ltoes 3.08281
46
root 6.76461 17.3137 -24.8468 10.47 1.0764 4.41576
lowerback 14.9518 -1.82001 -0.0471224
upperback -1.97493 -2.15655 2.6872
thorax -10.4668 -0.927376 3.46119
lowerneck -27.6044 0.275138 -2.31851
upperneck 13.6402 2.43626 -5.81157
head 8.79802 0.320841 -1.2849
rclavicle 3.1408e-014 -1.27222e-014
rhumerus -64.1821 -0.760475 -73.0358
rradius 64.4301
rwrist -3.60954
rhand -34.7589 5.53505
rfingers 7.12502
rthumb -7.91206 -24.2969
lclavicle 3.1408e-014 -1.27222e-014
lhumerus -43.1759 -18.2246 102.336
lradius 114.323
lwrist 19.0334
lhand -21.8926 -8.53482
lfingers 7.12502
lthumb 4.51249 21.3971
rfemur -50.2391 -8.28688 22.0848
rtibia 49.8334
rfoot -3.35692 -1.19924
rtoes -6.45729
lfemur 5.91119 -1.25865 -22.607
ltibia 57.3685
lfoot 19.3529 -9.73829
ltoes 4.3428
